#!OML:ASF H:\Dans Jumps\Project 1\Capture day 1\Session 1\subject.ASF
:FULLY-SPECIFIED
:DEGREES
536
root 0.375819 17.5441 -6.75565 13.1792 0.162315 -2.01843
lowerback 7.25136 0.540637 0.0833001
upperback 5.35107 0.712677 1.50334
thorax 1.44004 0.332663 1.45923
lowerneck -14.1048 -0.294081 -1.27218
upperneck 28.0366 -0.479835 1.37725
head 11.4555 -0.175988 0.659515
rclavicle 7.45443e-015 1.41137e-014
rhumerus -34.2352 4.12394 -86.0478
rradius 84.8551
rwrist 10.4249
rhand -33.5643 -28.6353
rfingers 7.12502
rthumb -6.75899 -58.5075
lclavicle 7.45443e-015 1.41137e-014
lhumerus -40.92 -13.9071 89.7694
lradius 83.0119
lwrist 30.0824
lhand -32.6569 -16.137
lfingers 7.12502
lthumb -5.88296 13.7613
rfemur -29.8355 -2.70279 20.0026
rtibia 30.6933
rfoot -13.1641 1.39434
rtoes 13.7129
lfemur -29.2768 6.4842 -18.4831
ltibia 29.9384
lfoot -11.2124 5.53086
ltoes 4.95045
537
root 0.378972 17.5536 -6.74876 13.2202 0.141831 -2.03096
lowerback 7.14659 0.550259 0.102616
upperback 5.33037 0.725768 1.50252
thorax 1.47631 0.339694 1.4476
lowerneck -14.1069 -0.298554 -1.25755
upperneck 28.0555 -0.489098 1.37334
head 11.4633 -0.179059 0.654401
rclavicle 1.0635e-014 1.15295e-014
rhumerus -34.3583 4.16923 -86.0708
rradius 84.4351
rwrist 10.6971
rhand -33.5513 -28.6551
rfingers 7.12502
rthumb -6.74645 -58.5276
lclavicle 1.0635e-014 1.15295e-014
lhumerus -40.7582 -14.0204 89.8094
lradius 82.4076
lwrist 29.639
lhand -32.3207 -15.6798
lfingers 7.12502
lthumb -5.5584 14.2273
rfemur -29.7207 -2.6868 20.0034
rtibia 30.4338
rfoot -13.0557 1.41519
rtoes 13.8096
lfemur -29.1499 6.5074 -18.4869
ltibia 29.6727
lfoot -11.1427 5.5009
ltoes 5.01774
538
root 0.382059 17.5622 -6.74187 13.2451 0.129502 -2.04307
lowerback 7.04758 0.555341 0.126236
upperback 5.31432 0.733035 1.50055
thorax 1.51446 0.34394 1.43273
lowerneck -14.1069 -0.299713 -1.23943
upperneck 28.093 -0.493475 1.365
head 11.4778 -0.180136 0.647833
rclavicle 1.98785e-015 6.16232e-015
rhumerus -34.4515 4.23238 -86.0957
rradius 83.9439
rwrist 11.0018
rhand -33.5302 -28.6848
rfingers 7.12502
rthumb -6.72606 -58.558
lclavicle 1.98785e-015 6.16232e-015
lhumerus -40.5788 -14.1196 89.8335
lradius 81.7479
lwrist 29.1354
lhand -31.9495 -15.1945
lfingers 7.12502
lthumb -5.20001 14.7217
rfemur -29.595 -2.66634 20.0028
rtibia 30.1889
rfoot -12.9563 1.41724
rtoes 13.8848
lfemur -29.0193 6.5222 -18.4881
ltibia 29.431
lfoot -11.0804 5.47775
ltoes 5.06601
539
root 0.385109 17.5701 -6.73476 13.2521 0.117405 -2.05554
lowerback 6.95123 0.558293 0.150606
upperback 5.30739 0.737378 1.49766
thorax 1.56072 0.346715 1.41673
lowerneck -14.0893 -0.30086 -1.23202
upperneck 28.1284 -0.497883 1.36593
head 11.488 -0.181269 0.646487
rclavicle -3.18055e-015 -1.13307e-014
rhumerus -34.5072 4.3124 -86.1217
rradius 83.3793
rwrist 11.3288
rhand -33.5043 -28.7243
rfingers 7.12502
rthumb -6.7011 -58.5983
lclavicle -3.18055e-015 -1.13307e-014
lhumerus -40.3773 -14.1981 89.8417
lradius 81.0316
lwrist 28.5745
lhand -31.5595 -14.6856
lfingers 7.12502
lthumb -4.82336 15.2395
rfemur -29.4551 -2.6439 20.002
rtibia 29.9565
rfoot -12.866 1.41098
rtoes 13.9383
lfemur -28.8792 6.53691 -18.4871
ltibia 29.209
lfoot -11.0231 5.459
ltoes 5.1017
540
root 0.38786 17.5772 -6.72757 13.2465 0.0984507 -2.06978
lowerback 6.85442 0.561385 0.168841
upperback 5.30572 0.741462 1.49619
thorax 1.61265 0.349142 1.40571
lowerneck -14.0492 -0.301754 -1.23547
upperneck 28.1593 -0.501278 1.37376
head 11.4918 -0.182324 0.649646
rclavicle -8.54774e-015 3.57812e-015
rhumerus -34.5236 4.40781 -86.1481
rradius 82.7332
rwrist 11.6735
rhand -33.4764 -28.7601
rfingers 7.12502
rthumb -6.67408 -58.6349
lclavicle -8.54774e-015 3.57812e-015
lhumerus -40.1526 -14.2487 89.8377
lradius 80.2485
lwrist 27.967
lhand -31.1708 -14.1903
lfingers 7.12502
lthumb -4.44807 15.743
rfemur -29.3078 -2.61515 20.0024
rtibia 29.7363
rfoot -12.7838 1.40138
rtoes 13.9697
lfemur -28.7344 6.56158 -18.4839
ltibia 29.0047
lfoot -10.9713 5.43943
ltoes 5.13134
541
root 0.390443 17.5837 -6.72004 13.2206 0.0726324 -2.0864
lowerback 6.7646 0.564546 0.181646
upperback 5.31252 0.745266 1.49688
thorax 1.66945 0.351206 1.40001
lowerneck -13.9913 -0.302127 -1.24964
upperneck 28.1866 -0.503368 1.38872
head 11.4907 -0.183118 0.657425
rclavicle -5.86415e-015 -8.74653e-015
rhumerus -34.4973 4.5137 -86.1725
rradius 82.0002
rwrist 12.0296
rhand -33.4402 -28.7641
rfingers 7.12502
rthumb -6.63922 -58.64
lclavicle -5.86415e-015 -8.74653e-015
lhumerus -39.9029 -14.2659 89.824
lradius 79.3958
lwrist 27.3289
lhand -30.7927 -13.7405
lfingers 7.12502
lthumb -4.083 16.2001
rfemur -29.1423 -2.58453 20.0048
rtibia 29.527
rfoot -12.7102 1.39532
rtoes 13.9977
lfemur -28.574 6.5992 -18.4776
ltibia 28.8168
lfoot -10.9256 5.41497
ltoes 5.16048
